<svg width="33" height="46" xmlns="http://www.w3.org/2000/svg"><path d="M8.5 28.214a8.51 8.51 0 018.5 8.5 8.5 8.5 0 11-8.5-8.5zm0 1.546a6.954 6.954 0 100 13.909 6.963 6.963 0 006.955-6.955A6.954 6.954 0 008.5 29.76zm-4.39 8.454c.134.419.333.815.59 1.174l-1.21.826a5.715 5.715 0 01-.79-1.565zm4.39-7.5v1.5a4.504 4.504 0 00-4.5 4.5H2.5a6.007 6.007 0 016-6zm17.5-18.5a7.008 7.008 0 017 7 7 7 0 11-7-7zm0 1.556a5.444 5.444 0 100 10.888 5.444 5.444 0 000-10.888zm2.998 6.744l1.202.54a3.923 3.923 0 01-1.195 1.46L28.2 21.49c.343-.258.617-.592.798-.976zm-3.498-6a5.005 5.005 0 015 5h-1.667a3.333 3.333 0 00-3.333-3.333zM8.5.214a5.5 5.5 0 110 11 5.5 5.5 0 010-11zm0 1.572a3.929 3.929 0 100 7.857 3.929 3.929 0 000-7.857zM8 3.214v1a1 1 0 00-1 1H6a2 2 0 012-2z" fill="currentColor" fill-rule="nonzero"/></svg>