<?xml version="1.0" encoding="UTF-8"?>
<svg width="20px" height="16px" viewBox="0 0 20 16" version="1.1" xmlns="http://www.w3.org/2000/svg" xmlns:xlink="http://www.w3.org/1999/xlink">
    <title>Email</title>
    <g id="Main---For-Invision" stroke="none" stroke-width="1" fill="none" fill-rule="evenodd">
        <g id="Portfolio---Landing-Page---Scroll-Down" transform="translate(-165.000000, -3316.000000)" fill="#00273E" fill-rule="nonzero">
            <g id="Group-11" transform="translate(165.000000, 3310.000000)">
                <g id="Group" transform="translate(0.000000, 4.000000)">
                    <g id="icon-email" transform="translate(0.000000, 2.500000)">
                        <path d="M18.124987,0 L1.87501305,0 C0.841067261,0 1.48029737e-15,0.841067261 1.48029737e-15,1.87501305 L1.48029737e-15,13.1250078 C1.48029737e-15,14.1589536 0.841067261,15.0000209 1.87501305,15.0000209 L18.124987,15.0000209 C19.1589327,15.0000209 20,14.1589536 20,13.1250078 L20,1.87501305 C20,0.841067261 19.1589327,0 18.124987,0 Z M18.124987,1.24999478 C18.2099036,1.24999478 18.2906871,1.26761269 18.3645404,1.29838141 L10,8.54798375 L1.63541784,1.29838141 C1.70927111,1.26765444 1.79005465,1.24999478 1.8749713,1.24999478 L18.124987,1.24999478 Z M18.124987,13.7499843 L1.87501305,13.7499843 C1.53016962,13.7499843 1.24999478,13.4698512 1.24999478,13.1249661 L1.24999478,2.61901482 L9.59044625,9.84740887 C9.7082608,9.9493172 9.8541304,10 10,10 C10.1458696,10 10.2917392,9.94935895 10.4095537,9.84740887 L18.7500052,2.61901482 L18.7500052,13.1250078 C18.7500052,13.4698512 18.4698304,13.7499843 18.124987,13.7499843 L18.124987,13.7499843 Z" id="Shape"></path>
                    </g>
                </g>
            </g>
        </g>
    </g>
</svg>