<?xml version="1.0" encoding="UTF-8"?>
<svg width="24px" height="24px" viewBox="0 0 24 24" version="1.1" xmlns="http://www.w3.org/2000/svg" xmlns:xlink="http://www.w3.org/1999/xlink">
    <title>Linkedin</title>
    <g id="Main---For-Invision" stroke="none" stroke-width="1" fill="none" fill-rule="evenodd">
        <g id="Portfolio---Landing-Page" transform="translate(-60.000000, -960.000000)" fill="#F1F4FA" fill-rule="nonzero">
            <g id="linkedin-icon" transform="translate(60.000000, 960.000000)">
                <path d="M22.2225,0.00075 C23.20275,0.00075 24,0.7755 24,1.7295 L24,1.7295 L24,22.2675 C24,23.22375 23.20275,24 22.224,24 L22.224,24 L1.7715,24 C0.795,24 0,23.22375 0,22.2675 L0,22.2675 L0,1.7295 C0,0.7755 0.795,0.00075 1.7715,0.00075 L1.7715,0.00075 Z M16.188,8.7135 C14.4495,8.7135 13.2885,9.663 12.813,10.563 L12.813,10.563 L12.76575,10.563 L12.76575,8.99775 L9.357,8.99775 L9.357,20.448 L12.9135,20.448 L12.9135,14.7825 C12.9135,13.29 13.1985,11.8425 15.051,11.8425 C16.8765,11.8425 16.9005,13.5525 16.9005,14.88 L16.9005,20.451 L20.45775,20.451 L20.45775,14.169 C20.45775,11.08575 19.7925,8.7135 16.188,8.7135 Z M7.125,8.99775 L3.55875,8.99775 L3.55875,20.45025 L7.125,20.45025 L7.125,8.99775 Z M5.33925,3.29774877 C4.79185125,3.29715284 4.26666809,3.51418767 3.87938754,3.90104619 C3.49210699,4.28790472 3.2745,4.81285093 3.2745,5.36025 C3.27738717,6.49967451 4.20057452,7.42252664 5.34,7.425 C6.477,7.425 7.40175,6.498 7.40175,5.36025 C7.40175,4.2225 6.477,3.29774877 5.33925,3.29774877 Z" id="Combined-Shape"></path>
            </g>
        </g>
    </g>
</svg>