<?xml version="1.0" encoding="UTF-8"?>
<svg width="22px" height="16px" viewBox="0 0 22 16" version="1.1" xmlns="http://www.w3.org/2000/svg" xmlns:xlink="http://www.w3.org/1999/xlink">
    <title>Menu</title>
    <g id="Main---For-Invision" stroke="none" stroke-width="1" fill="none" fill-rule="evenodd">
        <g id="Portfolio---Landing-Page---Scroll-Down" transform="translate(-1252.000000, -64.000000)" fill="currentColor" fill-rule="nonzero">
            <g id="Group" transform="translate(1251.000000, 60.000000)">
                <g id="menu" transform="translate(1.000000, 4.000000)">
                    <path fill="currentColor" d="M21.3125161,14 C21.6920323,14 22,14.4479634 22,15 C22,15.5519534 21.6920323,16 21.3125161,16 L21.3125161,16 L0.687483927,16 C0.308024802,16 0,15.5520366 0,15 C0,14.4480466 0.307967655,14 0.687483927,14 L0.687483927,14 Z M21.3125161,7 C21.6920323,7 22,7.44804655 22,8 C22,8.55195345 21.6920323,9 21.3125161,9 L21.3125161,9 L0.687483927,9 C0.308024802,9 0,8.55195345 0,8 C0,7.44804655 0.307967655,7 0.687483927,7 L0.687483927,7 Z M21.3125161,0 C21.6919752,0 22,0.447963425 22,1 C22,1.55195345 21.6920323,2 21.3125161,2 L21.3125161,2 L0.687483927,2 C0.308024802,2 0,1.55203658 0,1 C0,0.447963425 0.308024802,0 0.687483927,0 L0.687483927,0 Z" id="Combined-Shape"></path>
                </g>
            </g>
        </g>
    </g>
</svg>