<?xml version="1.0" encoding="UTF-8"?>
<svg width="20px" height="20px" viewBox="0 0 20 20" version="1.1" xmlns="http://www.w3.org/2000/svg" xmlns:xlink="http://www.w3.org/1999/xlink">
    <title>Phone</title>
    <g id="Main---For-Invision" stroke="none" stroke-width="1" fill="none" fill-rule="evenodd">
        <g id="Portfolio---Landing-Page---Scroll-Down" transform="translate(-165.000000, -3360.000000)" fill="#00273E" fill-rule="nonzero">
            <g id="Group-11" transform="translate(165.000000, 3310.000000)">
                <g id="Group-8" transform="translate(0.000000, 46.000000)">
                    <g id="Group" transform="translate(0.000000, 4.000000)">
                        <g id="phone-call" transform="translate(0.833333, 0.833333)">
                            <path d="M15.4332433,10.9285394 C15.0330886,10.5137395 14.5504278,10.2919654 14.0388899,10.2919654 C13.5314772,10.2919654 13.0446911,10.5096326 12.6280352,10.9244325 L11.3244386,12.2181153 C11.2171806,12.1606183 11.1099227,12.1072282 11.00679,12.0538381 C10.858279,11.9799134 10.7180186,11.9100956 10.5983847,11.8361708 C9.37729417,11.0640681 8.26758687,10.0578704 7.20325795,8.75597372 C6.68759471,8.10707885 6.34106901,7.56085723 6.08942535,7.00642174 C6.42770043,6.69840203 6.74122368,6.37806153 7.04649632,6.07004182 C7.16200489,5.95504779 7.27751345,5.83594683 7.39302202,5.72095281 C8.25933626,4.85849761 8.25933626,3.74141278 7.39302202,2.87895759 L6.2668135,1.75776583 C6.13892902,1.63045102 6.00691923,1.49902927 5.88316005,1.36760753 C5.63564169,1.1129779 5.37574742,0.850134409 5.10760254,0.603718638 C4.70744786,0.209453405 4.22891237,0 3.72562505,0 C3.22233773,0 2.73555163,0.209453405 2.32302104,0.603718638 C2.31889573,0.607825568 2.31889573,0.607825568 2.31477042,0.611932497 L0.91216641,2.02060932 C0.384127251,2.5462963 0.0829799185,3.1869773 0.0169750237,3.93033154 C-0.0820323185,5.12955496 0.272743991,6.24663978 0.545014182,6.97767324 C1.21331374,8.77240143 2.21163778,10.4357079 3.70087322,12.2181153 C5.50775721,14.3660394 7.68179343,16.0622013 10.1652276,17.2573178 C11.114048,17.7049731 12.3805169,18.234767 13.7954968,18.3251195 C13.8821282,18.3292264 13.972885,18.3333333 14.0553911,18.3333333 C15.0083368,18.3333333 15.8086461,17.9924582 16.4356926,17.3148148 C16.4398179,17.306601 16.4480685,17.302494 16.4521938,17.2942802 C16.6667097,17.0355436 16.9142281,16.8014486 17.1741224,16.5509259 C17.3515105,16.3825418 17.533024,16.2059438 17.7104121,16.021132 C18.1188174,15.5981183 18.3333333,15.1052867 18.3333333,14.6001344 C18.3333333,14.0908751 18.1146921,13.6021505 17.6980362,13.1914576 L15.4332433,10.9285394 Z M16.9101028,15.2531362 C16.9059775,15.2531362 16.9059775,15.2572431 16.9101028,15.2531362 C16.7492159,15.4256272 16.5842036,15.5816906 16.4068155,15.7541816 C16.1386706,16.0088112 15.8664004,16.2757616 15.6106314,16.5755675 C15.1939755,17.0191159 14.7030641,17.2285693 14.0595164,17.2285693 C13.9976368,17.2285693 13.9316319,17.2285693 13.8697523,17.2244624 C12.6445365,17.1464307 11.505952,16.6700269 10.6520137,16.2634409 C8.31709055,15.1381422 6.2668135,13.5405466 4.56306215,11.5158303 C3.15633283,9.82788232 2.21576308,8.2672491 1.59284189,6.59162186 C1.20918844,5.56899642 1.06892803,4.77225209 1.13080762,4.02068399 C1.17206068,3.54017324 1.35769945,3.14180108 1.70009984,2.80092593 L3.10682916,1.40046296 C3.30896915,1.21154421 3.52348506,1.10887097 3.73387566,1.10887097 C3.99376994,1.10887097 4.20416054,1.26493429 4.33617033,1.39635603 C4.34029563,1.40046296 4.34442094,1.40456989 4.34854625,1.40867682 C4.60018991,1.6427718 4.83945765,1.88508065 5.09110131,2.1438172 C5.2189858,2.27523895 5.35099559,2.40666069 5.48300538,2.54218937 L6.60921389,3.66338112 C7.04649632,4.09871565 7.04649632,4.50119474 6.60921389,4.93652927 C6.48958002,5.05563023 6.37407146,5.17473118 6.25443758,5.28972521 C5.90791189,5.64292115 5.57788741,5.97147551 5.2189858,6.29181601 C5.21073518,6.30002987 5.20248457,6.3041368 5.19835927,6.31235066 C4.84358296,6.66554659 4.90958785,7.01052867 4.98384336,7.24462366 C4.98796866,7.25694444 4.99209397,7.26926523 4.99621928,7.28158602 C5.289116,7.9879779 5.70164659,8.65330048 6.32869309,9.44593787 L6.3328184,9.4500448 C7.47140283,10.8464008 8.67186686,11.9347372 9.99609006,12.7684438 C10.1652276,12.875224 10.3384904,12.9614695 10.5035027,13.0436081 C10.6520137,13.1175329 10.7922741,13.1873507 10.911908,13.2612754 C10.9284092,13.2694892 10.9449104,13.28181 10.9614116,13.2900239 C11.101672,13.3598417 11.2336818,13.3926971 11.3698169,13.3926971 C11.7122173,13.3926971 11.9267332,13.1791368 11.9968634,13.109319 L13.4077181,11.7047491 C13.5479785,11.5651135 13.770745,11.3967294 14.0306393,11.3967294 C14.2864082,11.3967294 14.4967988,11.5568996 14.6246833,11.6965352 C14.6288086,11.7006422 14.6288086,11.7006422 14.6329339,11.7047491 L16.9059775,13.9676673 C17.330884,14.3865741 17.330884,14.8178017 16.9101028,15.2531362 Z" id="Shape"></path>
                        </g>
                    </g>
                </g>
            </g>
        </g>
    </g>
</svg>